<svg width="30" height="30" viewBox="0 0 30 30" fill="none" xmlns="http://www.w3.org/2000/svg">
<path d="M26 6.5C26 13.3342 26 24 26 24C26 24.663 25.7366 25.2989 25.2678 25.7678C24.7989 26.2366 24.163 26.5 23.5 26.5H6C5.33696 26.5 4.70107 26.2366 4.23223 25.7678C3.76339 25.2989 3.5 24.663 3.5 24V6.5C3.5 5.83696 3.76339 5.20107 4.23223 4.73223C4.70107 4.26339 5.33696 4 6 4H23.5" stroke="#525252" stroke-linecap="round" stroke-linejoin="round"/>
<path d="M23.5 3.99997C24 3.99997 24.9307 3.93069 25.5 4.49997C26.0693 5.06925 26 5.99997 26 6.49997" stroke="#525252"/>
</svg>
