<svg width="40" height="40" viewBox="0 0 40 40" fill="none" xmlns="http://www.w3.org/2000/svg">
  <mask id="mask0_460_2690" style="mask-type:alpha" maskUnits="userSpaceOnUse" x="0" y="0" width="40" height="40">
    <rect width="40" height="40" fill="#D9D9D9"/>
  </mask>
  <g mask="url(#mask0_460_2690)">
    <path d="M9.74992 28.5C11.1666 27.4167 12.7499 26.5625 14.4999 25.9375C16.2499 25.3125 18.0833 25 19.9999 25C21.9166 25 23.7499 25.3125 25.4999 25.9375C27.2499 26.5625 28.8333 27.4167 30.2499 28.5C31.2221 27.3611 31.9791 26.0695 32.5208 24.625C33.0624 23.1806 33.3333 21.6389 33.3333 20C33.3333 16.3056 32.0346 13.1597 29.4374 10.5625C26.8402 7.96529 23.6944 6.66668 19.9999 6.66668C16.3055 6.66668 13.1596 7.96529 10.5624 10.5625C7.9652 13.1597 6.66659 16.3056 6.66659 20C6.66659 21.6389 6.93742 23.1806 7.47909 24.625C8.02075 26.0695 8.7777 27.3611 9.74992 28.5ZM19.9999 21.6667C18.361 21.6667 16.9791 21.1042 15.8541 19.9792C14.7291 18.8542 14.1666 17.4722 14.1666 15.8333C14.1666 14.1945 14.7291 12.8125 15.8541 11.6875C16.9791 10.5625 18.361 10 19.9999 10C21.6388 10 23.0208 10.5625 24.1458 11.6875C25.2708 12.8125 25.8333 14.1945 25.8333 15.8333C25.8333 17.4722 25.2708 18.8542 24.1458 19.9792C23.0208 21.1042 21.6388 21.6667 19.9999 21.6667ZM19.9999 36.6667C17.6944 36.6667 15.5277 36.2292 13.4999 35.3542C11.4721 34.4792 9.70825 33.2917 8.20825 31.7917C6.70825 30.2917 5.52075 28.5278 4.64575 26.5C3.77075 24.4722 3.33325 22.3056 3.33325 20C3.33325 17.6945 3.77075 15.5278 4.64575 13.5C5.52075 11.4722 6.70825 9.70834 8.20825 8.20834C9.70825 6.70834 11.4721 5.52084 13.4999 4.64584C15.5277 3.77084 17.6944 3.33334 19.9999 3.33334C22.3055 3.33334 24.4721 3.77084 26.4999 4.64584C28.5277 5.52084 30.2916 6.70834 31.7916 8.20834C33.2916 9.70834 34.4791 11.4722 35.3541 13.5C36.2291 15.5278 36.6666 17.6945 36.6666 20C36.6666 22.3056 36.2291 24.4722 35.3541 26.5C34.4791 28.5278 33.2916 30.2917 31.7916 31.7917C30.2916 33.2917 28.5277 34.4792 26.4999 35.3542C24.4721 36.2292 22.3055 36.6667 19.9999 36.6667ZM19.9999 33.3333C21.4721 33.3333 22.861 33.1181 24.1666 32.6875C25.4721 32.257 26.6666 31.6389 27.7499 30.8333C26.6666 30.0278 25.4721 29.4097 24.1666 28.9792C22.861 28.5486 21.4721 28.3333 19.9999 28.3333C18.5277 28.3333 17.1388 28.5486 15.8333 28.9792C14.5277 29.4097 13.3333 30.0278 12.2499 30.8333C13.3333 31.6389 14.5277 32.257 15.8333 32.6875C17.1388 33.1181 18.5277 33.3333 19.9999 33.3333ZM19.9999 18.3333C20.7221 18.3333 21.3194 18.0972 21.7916 17.625C22.2638 17.1528 22.4999 16.5556 22.4999 15.8333C22.4999 15.1111 22.2638 14.5139 21.7916 14.0417C21.3194 13.5695 20.7221 13.3333 19.9999 13.3333C19.2777 13.3333 18.6805 13.5695 18.2083 14.0417C17.736 14.5139 17.4999 15.1111 17.4999 15.8333C17.4999 16.5556 17.736 17.1528 18.2083 17.625C18.6805 18.0972 19.2777 18.3333 19.9999 18.3333Z" fill="#525252"/>
  </g>
</svg>
