<svg width="90" height="90" viewBox="0 0 90 90" fill="none" xmlns="http://www.w3.org/2000/svg">
<path d="M41.25 15H15C13.0109 15 11.1032 15.7902 9.6967 17.1967C8.29018 18.6032 7.5 20.5109 7.5 22.5V75C7.5 76.9891 8.29018 78.8968 9.6967 80.3033C11.1032 81.7098 13.0109 82.5 15 82.5H67.5C69.4891 82.5 71.3968 81.7098 72.8033 80.3033C74.2098 78.8968 75 76.9891 75 75V48.75" stroke="#525252" stroke-width="4" stroke-linecap="round" stroke-linejoin="round"/>
<path d="M69.375 9.375C70.8668 7.88315 72.8902 7.04504 75 7.04504C77.1098 7.04504 79.1332 7.88315 80.625 9.375C82.1168 10.8668 82.955 12.8902 82.955 15C82.955 17.1098 82.1168 19.1332 80.625 20.625L45 56.25L30 60L33.75 45L69.375 9.375Z" stroke="#525252" stroke-width="4" stroke-linecap="round" stroke-linejoin="round"/>
</svg>
