<svg width="18" height="26" viewBox="0 0 18 26" fill="none" xmlns="http://www.w3.org/2000/svg">
<path d="M9 22.08C7.908 22.08 6.882 21.876 5.922 21.468C4.962 21.06 4.116 20.496 3.384 19.776C2.664 19.044 2.1 18.198 1.692 17.238C1.284 16.278 1.08 15.252 1.08 14.16C1.08 13.068 1.284 12.042 1.692 11.082C2.1 10.122 2.664 9.282 3.384 8.562C4.116 7.83 4.962 7.26 5.922 6.852C6.882 6.444 7.908 6.24 9 6.24C10.092 6.24 11.118 6.444 12.078 6.852C13.038 7.26 13.878 7.83 14.598 8.562C15.33 9.282 15.9 10.122 16.308 11.082C16.716 12.042 16.92 13.068 16.92 14.16C16.92 15.252 16.716 16.278 16.308 17.238C15.9 18.198 15.33 19.044 14.598 19.776C13.878 20.496 13.038 21.06 12.078 21.468C11.118 21.876 10.092 22.08 9 22.08ZM9 21.252C9.984 21.252 10.902 21.072 11.754 20.712C12.618 20.34 13.374 19.83 14.022 19.182C14.67 18.534 15.174 17.784 15.534 16.932C15.906 16.068 16.092 15.144 16.092 14.16C16.092 13.176 15.906 12.258 15.534 11.406C15.174 10.542 14.67 9.786 14.022 9.138C13.374 8.49 12.618 7.986 11.754 7.626C10.902 7.254 9.984 7.068 9 7.068C8.016 7.068 7.092 7.254 6.228 7.626C5.376 7.986 4.626 8.49 3.978 9.138C3.33 9.786 2.82 10.542 2.448 11.406C2.088 12.258 1.908 13.176 1.908 14.16C1.908 15.144 2.088 16.068 2.448 16.932C2.82 17.784 3.33 18.534 3.978 19.182C4.626 19.83 5.376 20.34 6.228 20.712C7.092 21.072 8.016 21.252 9 21.252Z" fill="#525252"/>
</svg>
